<?xml version="1.0" encoding="utf-8"?>
<!-- Generator: Adobe Illustrator 21.1.0, SVG Export Plug-In . SVG Version: 6.00 Build 0)  -->
<svg version="1.1" id="Layer_1" xmlns="http://www.w3.org/2000/svg" xmlns:xlink="http://www.w3.org/1999/xlink" x="0px" y="0px"
	 viewBox="0 0 239 70" style="enable-background:new 0 0 239 70;" xml:space="preserve">
<style type="text/css">
	.st0{fill:#807F83;}
	.st1{fill:#FFFFFF;}
	.st2{fill:#4F2683;}
</style>
<g>
	<g>
		<path class="st0" d="M52.4,51V37h5c3,0,4.8,1.2,4.8,3.5c0,1.9-1.2,2.9-2.6,3.2v0c1.7,0.3,3,1.4,3,3.4c0,2.3-1.7,3.8-4.8,3.8H52.4z
			 M54,43.1h3.2c2.1,0,3.3-0.7,3.3-2.3c0-1.6-1-2.3-3.3-2.3H54V43.1z M54,49.5h3.6c2.3,0,3.3-0.9,3.3-2.5c0-1.8-1.4-2.5-3.6-2.5H54
			V49.5z"/>
		<path class="st0" d="M64.7,51V41h1.6v1.9h0c0.7-1.2,1.9-2.1,3.9-2.1h0.2l-0.1,1.5c-0.1,0-0.4,0-0.5,0c-1.6,0-2.8,0.8-3.5,2.2V51
			H64.7z"/>
		<path class="st0" d="M70.8,48.6c0-2,1.7-3.5,6.7-4.2V44c0-1.2-0.7-1.9-1.9-1.9c-1.5,0-2.6,0.7-3.6,1.5l-0.9-1
			c1.2-1.1,2.6-1.9,4.6-1.9c2.4,0,3.3,1.2,3.3,3.3v4.4c0,1.2,0.1,1.9,0.3,2.5h-1.7c-0.1-0.4-0.2-0.8-0.2-1.4c-1.1,1-2.4,1.5-3.9,1.5
			C71.9,51.1,70.8,50.2,70.8,48.6z M77.5,48.4v-2.8c-3.8,0.6-5.1,1.5-5.1,2.8c0,1,0.6,1.5,1.7,1.5C75.4,49.9,76.6,49.3,77.5,48.4z"
			/>
		<path class="st0" d="M81.5,38.9v-1.6h1.7v1.6H81.5z M81.5,51V41h1.6v10H81.5z"/>
		<path class="st0" d="M85.6,51V41h1.6v1.5c0.9-0.9,2.1-1.7,3.7-1.7c1.9,0,2.9,1.1,2.9,3V51h-1.6v-6.8c0-1.3-0.6-1.9-1.8-1.9
			c-1.2,0-2.2,0.6-3.2,1.6V51H85.6z"/>
		<path class="st0" d="M95.6,49.5l1-1c0.8,0.8,1.8,1.4,3.1,1.4c1.6,0,2.4-0.5,2.4-1.6c0-1-0.9-1.4-2.6-1.8c-2.1-0.5-3.6-1.1-3.6-3
			c0-1.5,1.3-2.7,3.5-2.7c1.8,0,2.9,0.6,3.8,1.4l-0.9,1.1c-0.8-0.7-1.8-1.2-2.9-1.2c-1.5,0-2,0.6-2,1.3c0,0.9,0.8,1.3,2.4,1.6
			c2.2,0.5,3.8,1.1,3.8,3.2c0,1.9-1.7,2.9-4,2.9C97.9,51.2,96.4,50.5,95.6,49.5z"/>
		<path class="st0" d="M104.8,44c0-4.9,2.8-7.2,6.4-7.2s5.1,1.9,5.7,4.4l-2.9,0.9c-0.5-1.6-1.1-2.7-2.8-2.7c-2.1,0-3.3,1.8-3.3,4.7
			c0,2.9,1.2,4.8,3.3,4.8c1.6,0,2.5-1,2.9-2.9l2.9,0.6c-0.7,2.8-2.3,4.8-5.9,4.8C107.5,51.3,104.8,48.9,104.8,44z"/>
		<path class="st0" d="M117.1,51l5-14h2.9l5,14h-3.1l-1-3.1H121l-1.1,3.1H117.1z M121.7,45.6h3.3l-1.6-4.8h0L121.7,45.6z"/>
		<path class="st0" d="M131.2,51V37h3.1l5.9,8.9h0V37h2.8v14h-2.8l-6.1-9h0v9H131.2z"/>
		<path class="st0" d="M53.9,64.6v-7.9h-2.8v-1h6.7v1H55v7.9H53.9z"/>
		<path class="st0" d="M57.2,64.6v-6.3h1v1.2h0c0.5-0.7,1.2-1.3,2.4-1.3h0.1l-0.1,1c0,0-0.3,0-0.3,0c-1,0-1.8,0.5-2.2,1.4v4.1H57.2z
			"/>
		<path class="st0" d="M61,63.1c0-1.3,1.1-2.2,4.2-2.6v-0.3c0-0.8-0.4-1.2-1.2-1.2c-1,0-1.7,0.4-2.3,1l-0.5-0.6
			c0.7-0.7,1.7-1.2,2.9-1.2c1.5,0,2.1,0.8,2.1,2.1V63c0,0.8,0,1.2,0.2,1.6h-1c-0.1-0.3-0.1-0.5-0.1-0.9c-0.7,0.7-1.5,1-2.4,1
			C61.7,64.7,61,64.1,61,63.1z M65.2,62.9v-1.8c-2.4,0.4-3.2,1-3.2,1.8c0,0.6,0.4,0.9,1.1,0.9C63.9,63.9,64.7,63.5,65.2,62.9z"/>
		<path class="st0" d="M67.7,64.6v-6.3h1v0.9c0.5-0.5,1.3-1.1,2.4-1.1c1.2,0,1.9,0.7,1.9,1.9v4.5h-1v-4.3c0-0.8-0.4-1.2-1.2-1.2
			c-0.8,0-1.4,0.4-2,1v4.5H67.7z"/>
		<path class="st0" d="M74,63.6l0.6-0.6c0.5,0.5,1.1,0.9,2,0.9c1,0,1.5-0.3,1.5-1c0-0.6-0.5-0.9-1.6-1.1c-1.3-0.3-2.3-0.7-2.3-1.9
			c0-1,0.8-1.7,2.2-1.7c1.1,0,1.8,0.4,2.4,0.9l-0.5,0.7c-0.5-0.4-1.1-0.8-1.8-0.8c-0.9,0-1.3,0.4-1.3,0.8c0,0.6,0.5,0.8,1.5,1
			c1.4,0.3,2.4,0.7,2.4,2c0,1.2-1.1,1.8-2.5,1.8C75.4,64.7,74.5,64.2,74,63.6z"/>
		<path class="st0" d="M80.6,64.6v-5.5h-1.1v-0.8h1.1v-0.8c0-1.1,0.6-1.7,1.9-1.7c0.2,0,0.5,0,0.6,0v0.8c-0.1,0-0.3,0-0.4,0
			c-0.6,0-1,0.2-1,0.9v0.8H83v0.8h-1.4v5.5H80.6z"/>
		<path class="st0" d="M83.3,61.4c0-2.2,1.4-3.3,2.9-3.3c1.5,0,2.9,1.1,2.9,3.3c0,2.2-1.4,3.3-2.9,3.3S83.3,63.6,83.3,61.4z
			 M88.2,61.4c0-1.3-0.6-2.4-1.9-2.4c-1.2,0-1.9,1-1.9,2.4c0,1.3,0.6,2.4,1.9,2.4C87.5,63.8,88.2,62.9,88.2,61.4z"/>
		<path class="st0" d="M90.3,64.6v-6.3h1v1.2h0c0.5-0.7,1.2-1.3,2.4-1.3H94l-0.1,1c0,0-0.3,0-0.3,0c-1,0-1.8,0.5-2.2,1.4v4.1H90.3z"
			/>
		<path class="st0" d="M94.8,64.6v-6.3h1v1c0.6-0.6,1.3-1.1,2.3-1.1c1.1,0,1.5,0.5,1.7,1.1c0.6-0.6,1.4-1.1,2.3-1.1
			c1.3,0,1.8,0.8,1.8,1.9v4.5h-1v-4.3c0-0.8-0.3-1.2-1.1-1.2c-0.7,0-1.3,0.4-1.9,1v4.5h-1v-4.3c0-0.8-0.3-1.2-1.1-1.2
			c-0.7,0-1.3,0.4-2,1v4.5H94.8z"/>
		<path class="st0" d="M105.5,56.9v-1h1.1v1H105.5z M105.5,64.6v-6.3h1v6.3H105.5z"/>
		<path class="st0" d="M108.1,64.6v-6.3h1v0.9c0.5-0.5,1.3-1.1,2.4-1.1c1.2,0,1.9,0.7,1.9,1.9v4.5h-1v-4.3c0-0.8-0.4-1.2-1.2-1.2
			c-0.8,0-1.4,0.4-2,1v4.5H108.1z"/>
		<path class="st0" d="M114.2,65.4c0-0.6,0.4-1.1,1.1-1.4c-0.4-0.2-0.5-0.4-0.5-0.8c0-0.4,0.3-0.8,0.8-1c-0.6-0.4-1-1-1-1.8
			c0-1.3,1.1-2.3,2.6-2.3c0.8,0,1.4,0.3,1.9,0.7c0.4-0.3,1-0.5,1.5-0.6v0.9c-0.3,0-0.8,0.1-1.1,0.2c0.2,0.3,0.3,0.7,0.3,1.1
			c0,1.4-1.1,2.2-2.5,2.2c-0.4,0-0.7-0.1-1-0.2c-0.3,0.1-0.4,0.3-0.4,0.5c0,0.3,0.2,0.4,0.9,0.4l1.3,0.1c1.6,0.1,2.4,0.6,2.4,1.6
			c0,1.2-1.3,1.8-3.1,1.8C115.1,67,114.2,66.4,114.2,65.4z M119.3,65.3c0-0.6-0.4-0.8-1.7-0.9l-1.2-0.1l-0.4,0
			c-0.6,0.2-0.9,0.6-0.9,1c0,0.6,0.7,0.9,2.2,0.9C118.6,66.2,119.3,65.8,119.3,65.3z M118.7,60.4c0-0.9-0.6-1.5-1.6-1.5
			c-1,0-1.6,0.6-1.6,1.5c0,0.9,0.6,1.5,1.6,1.5C118.1,61.9,118.7,61.3,118.7,60.4z"/>
		<path class="st0" d="M124.9,63.8v0.8h-1v-8.8h1v3.4c0.5-0.5,1.1-1,2.1-1c1.4,0,2.6,1.1,2.6,3.3c0,2.2-1.1,3.3-2.7,3.3
			C126.1,64.7,125.5,64.3,124.9,63.8z M128.6,61.4c0-1.6-0.8-2.4-1.8-2.4c-0.7,0-1.3,0.4-1.8,1v2.9c0.5,0.6,1.2,1,1.8,1
			C127.9,63.8,128.6,63.1,128.6,61.4z"/>
		<path class="st0" d="M130.8,64.6v-6.3h1v1.2h0c0.5-0.7,1.2-1.3,2.4-1.3h0.1l-0.1,1c0,0-0.3,0-0.3,0c-1,0-1.8,0.5-2.2,1.4v4.1
			H130.8z"/>
		<path class="st0" d="M134.6,63.1c0-1.3,1.1-2.2,4.2-2.6v-0.3c0-0.8-0.4-1.2-1.2-1.2c-1,0-1.7,0.4-2.3,1l-0.5-0.6
			c0.7-0.7,1.7-1.2,2.9-1.2c1.5,0,2.1,0.8,2.1,2.1V63c0,0.8,0,1.2,0.2,1.6h-1c-0.1-0.3-0.1-0.5-0.1-0.9c-0.7,0.7-1.5,1-2.4,1
			C135.3,64.7,134.6,64.1,134.6,63.1z M138.8,62.9v-1.8c-2.4,0.4-3.2,1-3.2,1.8c0,0.6,0.4,0.9,1.1,0.9
			C137.5,63.9,138.3,63.5,138.8,62.9z"/>
		<path class="st0" d="M141.4,56.9v-1h1.1v1H141.4z M141.4,64.6v-6.3h1v6.3H141.4z"/>
		<path class="st0" d="M144,64.6v-6.3h1v0.9c0.5-0.5,1.3-1.1,2.4-1.1c1.2,0,1.9,0.7,1.9,1.9v4.5h-1v-4.3c0-0.8-0.4-1.2-1.2-1.2
			c-0.8,0-1.4,0.4-2,1v4.5H144z"/>
		<path class="st0" d="M153.2,64.6v-6.3h1v1.2h0c0.5-0.7,1.2-1.3,2.4-1.3h0.1l-0.1,1c0,0-0.3,0-0.3,0c-1,0-1.8,0.5-2.2,1.4v4.1
			H153.2z"/>
		<path class="st0" d="M157,61.4c0-2.3,1.5-3.3,2.9-3.3c1.5,0,2.6,1,2.6,3.3v0.2H158c0,1.4,0.9,2.2,1.9,2.2c0.9,0,1.4-0.4,1.9-1
			l0.6,0.5c-0.6,0.8-1.4,1.3-2.6,1.3C158.3,64.7,157,63.6,157,61.4z M161.5,60.9c-0.1-1.1-0.6-1.9-1.7-1.9c-0.8,0-1.6,0.6-1.8,1.9
			H161.5z"/>
		<path class="st0" d="M163.1,63.6l0.6-0.6c0.5,0.5,1.1,0.9,2,0.9c1,0,1.5-0.3,1.5-1c0-0.6-0.5-0.9-1.6-1.1
			c-1.3-0.3-2.3-0.7-2.3-1.9c0-1,0.8-1.7,2.2-1.7c1.1,0,1.8,0.4,2.4,0.9l-0.5,0.7c-0.5-0.4-1.1-0.8-1.8-0.8c-0.9,0-1.3,0.4-1.3,0.8
			c0,0.6,0.5,0.8,1.5,1c1.4,0.3,2.4,0.7,2.4,2c0,1.2-1.1,1.8-2.5,1.8C164.5,64.7,163.6,64.2,163.1,63.6z"/>
		<path class="st0" d="M168.9,61.4c0-2.3,1.5-3.3,2.9-3.3c1.5,0,2.6,1,2.6,3.3v0.2h-4.4c0,1.4,0.9,2.2,1.9,2.2c0.9,0,1.4-0.4,1.9-1
			l0.6,0.5c-0.6,0.8-1.4,1.3-2.6,1.3C170.2,64.7,168.9,63.6,168.9,61.4z M173.4,60.9c-0.1-1.1-0.6-1.9-1.7-1.9
			c-0.8,0-1.6,0.6-1.8,1.9H173.4z"/>
		<path class="st0" d="M175,63.1c0-1.3,1.1-2.2,4.2-2.6v-0.3c0-0.8-0.4-1.2-1.2-1.2c-1,0-1.7,0.4-2.3,1l-0.5-0.6
			c0.7-0.7,1.7-1.2,2.9-1.2c1.5,0,2.1,0.8,2.1,2.1V63c0,0.8,0,1.2,0.2,1.6h-1c-0.1-0.3-0.1-0.5-0.1-0.9c-0.7,0.7-1.5,1-2.4,1
			C175.7,64.7,175,64.1,175,63.1z M179.2,62.9v-1.8c-2.4,0.4-3.2,1-3.2,1.8c0,0.6,0.4,0.9,1.1,0.9C177.9,63.9,178.6,63.5,179.2,62.9
			z"/>
		<path class="st0" d="M181.7,64.6v-6.3h1v1.2h0c0.5-0.7,1.2-1.3,2.4-1.3h0.1l-0.1,1c0,0-0.3,0-0.3,0c-1,0-1.8,0.5-2.2,1.4v4.1
			H181.7z"/>
		<path class="st0" d="M185.5,61.4c0-2.3,1.5-3.3,2.9-3.3c1.4,0,2.1,0.8,2.5,1.8l-0.9,0.4c-0.3-0.8-0.8-1.3-1.6-1.3
			c-0.9,0-1.8,0.6-1.8,2.4c0,1.6,0.7,2.4,1.8,2.4c0.8,0,1.3-0.3,1.7-1.3l0.8,0.3c-0.5,1-1.2,1.8-2.6,1.8
			C186.8,64.7,185.5,63.6,185.5,61.4z"/>
		<path class="st0" d="M191.9,64.6v-8.8h1v3.5c0.5-0.5,1.3-1.1,2.4-1.1c1.2,0,1.9,0.7,1.9,1.9v4.5h-1v-4.3c0-0.8-0.4-1.2-1.2-1.2
			c-0.8,0-1.4,0.4-2,1v4.5H191.9z"/>
		<path class="st0" d="M198.7,64.6v-1.3h1.2v1.3H198.7z"/>
	</g>
	<g>
		<path class="st1" d="M38.9,28.3l0-17.5c-4.5-1.6-11.6-2.6-19.6-2.6c-7.8,0-14.8,1-19.3,2.6l0,17.7c0,2.6-0.1,7.2,2.3,12.8
			c2.9,6.9,8.7,12,16.8,15.3l0.4,0.2l0.4-0.2c8.1-3.2,13.9-8.4,16.8-15.3C39.1,35.8,38.9,30.8,38.9,28.3z"/>
		<path class="st2" d="M38.9,28.3l0-17.5c-4.5-1.6-11.6-2.6-19.6-2.6c-7.8,0-14.8,1-19.3,2.6l0,17.7c0,2.6-0.1,7.2,2.3,12.8
			c2.9,6.9,8.7,12,16.8,15.3l0.4,0.2l0.4-0.2c8.1-3.2,13.9-8.4,16.8-15.3C39.1,35.8,38.9,30.8,38.9,28.3z M23.7,47.4
			c-0.1,0-0.2,0.1-0.3,0.1c-0.1,0-0.1,0-0.1,0.1c0,0,0,0.1,0,0.1c0,0.2-0.5,0.2-0.6,0.2c-0.1,0-0.3,0.2-0.4,0.3
			c-0.1,0.1-0.1,0.1-0.2,0.1c-0.2,0-0.2,0.3-0.1,0.4c0.1,0.2,0.2,0.3,0.4,0.4c0.1,0,0.3,0.1,0.4,0.1c-0.1,0.1-0.3,0.1-0.5,0.2
			c-0.1,0-0.2,0.1-0.3,0.1c-0.1,0-0.2,0-0.3,0c-0.2,0-0.3,0-0.5,0c-0.1,0-0.2,0-0.3-0.1c0,0-0.1-0.1-0.2-0.1c-0.1,0,0,0.2,0,0.2
			c-0.2,0.2-0.6-0.1-0.8-0.2c-0.1-0.1-0.2-0.3-0.4-0.3c0,0.2,0,0.4,0,0.5c0,0.5,0,1.1,0.1,1.6c0,0.3,0,0.6,0,1h-0.6l0.1-3.1
			c-0.2,0-0.3,0.2-0.4,0.3c-0.1,0-0.2,0-0.3,0.1c-0.1,0.1-0.1,0.1-0.2,0.2c-0.1,0-0.2,0.1-0.3,0.1c-0.1,0-0.3,0-0.3-0.1
			c0.1-0.1,0-0.2-0.1-0.3c-0.1,0-0.2,0-0.3,0c-0.4,0.1-0.9-0.2-1.3-0.3c0,0,0.9-0.2,0.9-0.7c0-0.1-0.1-0.3-0.2-0.4
			c-0.1-0.1-0.3-0.2-0.4-0.2c-0.2,0-0.4,0-0.5,0c0-0.1-0.1-0.2-0.2-0.2c-0.1-0.1-0.2-0.1-0.3-0.1c-0.2-0.1-0.5-0.3-0.4-0.5
			c0.1,0.1,0.3,0.1,0.4,0c0.1-0.1,0.1-0.1,0.1-0.3c0-0.2-0.2-0.3-0.3-0.4c-0.1-0.1-0.1-0.2-0.2-0.3c-0.1-0.1-0.2-0.1-0.2-0.2
			c0.2,0.1,0.2-0.1,0.1-0.2c-0.1-0.1-0.3-0.2-0.4-0.4c-0.1-0.1-0.1-0.3-0.1-0.5c0,0,0-0.2,0.1-0.2c0.1,0,0.1,0.1,0.1,0.1
			c0.1,0.2,0.3,0.2,0.4,0.3c0.2,0.1,0.3,0.2,0.5,0.2c0.4,0.1,0.7,0,1-0.2c0,0,0.2-0.1,0.2-0.1c0.1,0.1,0.3,0.4,0.5,0.4
			c0.2,0,0.4,0.3,0.5,0.4c0.3,0.3,0.5,0.1,0.5-0.1c0-0.2-0.1-0.5-0.1-0.7c-0.1-0.3-0.1-0.5-0.2-0.8c0-0.2-0.1-0.4-0.2-0.5
			c-0.1-0.1-0.2-0.5,0.1-0.4c0.1,0.1,0.3,0.2,0.4,0.1c0.3,0,0.4-0.4,0.4-0.7c0-0.1,0-0.2,0.1-0.4c0-0.1,0.1-0.1,0.1-0.1
			c0,0,0.1,0.1,0.1,0.1c0.1,0,0.2-0.2,0.3-0.3c0-0.1,0-0.2,0.1-0.3c0.1-0.2,0.1-0.4,0.2-0.5c0,0.1,0.1,0.3,0.1,0.4
			c0.1,0.2,0.1,0.4,0.3,0.6c0.1,0.1,0.2,0.2,0.4,0.1c0.1,0.2,0.1,0.8,0.2,1.1c0.1,0.2,0.2,0.2,0.4,0.2c0.1,0,0.2,0,0.3-0.1
			c0.1-0.1,0.2-0.2,0.3-0.2c0,0,0.1,0,0.1,0.1c0,0.1-0.2,0.5-0.2,0.5c-0.1,0.2-0.2,0.3-0.2,0.5c0,0.1-0.1,0.3-0.1,0.5
			c0,0.2-0.1,0.4-0.1,0.6c0,0.2,0,0.4,0.1,0.5c0.2,0.1,0.4-0.1,0.5-0.2c0.2-0.1,0.3-0.2,0.4-0.4c0.1-0.1,0.3-0.4,0.4-0.4
			c0,0.1,0.2,0.3,0.5,0.4c0.2,0,0.3,0,0.4-0.1c0.1-0.1,0.1-0.1,0.3,0c0.3,0.1,0.8-0.3,1-0.4c0.1,0.1,0,0.2-0.1,0.3
			c-0.1,0.2-0.3,0.3-0.3,0.5c0,0.1-0.2,0.4-0.2,0.6c-0.1,0.1-0.2,0.2-0.3,0.3c-0.2,0.2-0.4,0.4-0.3,0.7c0.1,0.3,0.3,0.4,0.5,0.4
			c0.2,0,0.3-0.1,0.4-0.1c0,0-0.1,0.2-0.1,0.2C24,47.3,23.9,47.4,23.7,47.4z M35.4,22.7H3.6l-2-2.1l4.1,1.3c-0.3-1-1.3-1.4-1.9-2.2
			c-0.4-0.5-0.5-1-0.4-1.5c0.1,0.2,0.3,0.4,0.6,0.7c0.3,0.2,0.7,0.4,1.2,0.5c1,0.2,1.4,0.5,1.9,0.9L5,16.5l3.6,2.3
			c-0.1-1.1-0.9-1.6-1.2-2.6c-0.2-0.6-0.2-1.1,0-1.6c0.1,0.2,0.2,0.5,0.4,0.8c0.2,0.3,0.6,0.5,1.1,0.8c0.9,0.5,1.3,0.9,1.6,1.4
			l-1.1-4.2l2.9,3.1c0.1-1-0.4-1.8-0.6-2.8c-0.1-0.6,0.1-1.1,0.4-1.6c0,0.2,0.1,0.5,0.2,0.9c0.2,0.3,0.4,0.6,0.8,1
			c0.8,0.7,1.1,1.2,1.2,1.8l0-4.4l2,3.7c0.4-0.9,0-1.8,0.1-2.8c0.1-0.6,0.4-1.1,0.8-1.4c0,0.2-0.1,0.5,0,0.9
			c0.1,0.3,0.3,0.7,0.6,1.2c0.6,0.9,0.7,1.5,0.8,2.1l0,0l1.1-4.3l1,4.1C21.1,14,21,13,21.4,12c0.2-0.6,0.6-0.9,1.1-1.2
			c-0.1,0.2-0.2,0.5-0.2,0.9c0,0.4,0.1,0.8,0.3,1.3c0.4,1,0.3,1.6,0.2,2.2l2.1-3.8l0,4.2c0.8-0.6,0.9-1.6,1.5-2.5
			c0.4-0.5,0.8-0.7,1.3-0.9c-0.1,0.2-0.3,0.4-0.4,0.8C27,13.4,27,13.8,27,14.4c0.1,1.1-0.1,1.6-0.3,2.2l0,0l3-3.2l-1.1,4.1
			c0.9-0.4,1.2-1.3,2-1.9c0.5-0.4,1-0.6,1.5-0.6c-0.2,0.1-0.4,0.3-0.6,0.6c-0.2,0.3-0.3,0.7-0.4,1.2c-0.2,1.1-0.5,1.6-0.9,2l0,0
			l3.7-2.4l-2,3.7c1-0.1,1.5-0.9,2.4-1.4c0.6-0.3,1.1-0.3,1.6-0.2c-0.2,0.1-0.5,0.2-0.8,0.5c-0.3,0.2-0.5,0.6-0.7,1.1
			c-0.4,1-0.8,1.4-1.3,1.7l0,0l4.2-1.4L35.4,22.7z M18.9,31.7c-0.1-0.1-0.3-0.6-1.5-0.6h-3.6v-5.7h0.3v5.5h3.2c0.2,0,0.5,0,0.6,0
			c0.7,0.1,0.9,0.4,1.1,0.5h0.8c0.1-0.2,0.4-0.4,1-0.5c0.2,0,0.4,0,0.6,0h3.3v-5.5h0.3v5.7h-3.6c-1.2,0-1.4,0.5-1.5,0.6H18.9z
			 M19.3,30.7V31c-0.5-0.9-2.8-0.8-4.7-0.6v-5.3c1,0,2.1-0.2,2.9-0.2c1,0,1.7,0.2,1.8,0.7v4.8c-0.6-0.7-2.5-0.7-4.4-0.5v0.2
			C16.9,29.9,18.9,29.9,19.3,30.7z M15.3,28.6c0.2,0,0.5,0,0.7,0c0.2,0,0.5,0,0.7,0v-0.1h-0.1c-0.3,0-0.3,0-0.3-0.2v-0.9
			c0-0.3,0-0.3,0.3-0.3h0.2v-0.1c-0.2,0-0.4,0-0.7,0c-0.2,0-0.4,0-0.7,0V27h0.2c0.2,0,0.3,0,0.3,0.3v0.9c0,0.2,0,0.2-0.3,0.2h-0.1
			V28.6z M17.6,27.5c-0.2-0.2-0.4-0.4-0.4-0.6c0-0.2,0.2-0.7,0.7-0.7c0.4,0,0.6,0.3,0.6,0.5c0,0.3-0.1,0.4-0.5,0.6
			c0.4,0.2,0.5,0.4,0.5,0.7c0,0.4-0.3,0.7-0.8,0.7c-0.4,0-0.7-0.3-0.7-0.6C17.1,27.7,17.4,27.5,17.6,27.5z M18.2,28.1
			c0-0.2-0.1-0.3-0.5-0.6c-0.2,0.1-0.3,0.3-0.3,0.5c0,0.3,0.2,0.5,0.4,0.5C18.1,28.5,18.2,28.3,18.2,28.1z M18,27.2
			c0.2-0.1,0.3-0.3,0.3-0.5c0-0.3-0.2-0.4-0.4-0.4c-0.2,0-0.4,0.2-0.4,0.4C17.5,26.9,17.7,27,18,27.2z M21.4,24.9
			c0.8,0,1.8,0.1,2.9,0.2v5.3c-1.9-0.2-4.2-0.3-4.7,0.6v-0.3c0.5-0.8,2.5-0.8,4.4-0.6V30c-1.9-0.2-3.8-0.3-4.4,0.5v-4.8
			C19.7,25.1,20.4,24.9,21.4,24.9z M20.2,27.5h0.1l0.1-0.2h1l-1,2l0.2,0l1.2-2.4l0,0h-1.5L20.2,27.5z M22.6,27.5
			c-0.3-0.2-0.4-0.4-0.4-0.6c0-0.2,0.2-0.7,0.7-0.7c0.4,0,0.6,0.3,0.6,0.5c0,0.3-0.1,0.4-0.5,0.6c0.4,0.2,0.5,0.4,0.5,0.7
			c0,0.4-0.3,0.7-0.8,0.7c-0.4,0-0.7-0.3-0.7-0.6C22.1,27.7,22.4,27.5,22.6,27.5z M23.2,28.1c0-0.2-0.1-0.3-0.5-0.6
			c-0.2,0.1-0.3,0.3-0.3,0.5c0,0.3,0.2,0.5,0.4,0.5C23.1,28.5,23.2,28.3,23.2,28.1z M23,27.2c0.2-0.1,0.3-0.3,0.3-0.5
			c0-0.3-0.2-0.4-0.4-0.4c-0.2,0-0.4,0.2-0.4,0.4C22.5,26.9,22.7,27,23,27.2z M31.4,47l-11.9-9.7L7.6,47c-6.1-7.1-6.1-15.3-6.1-18.7
			v-5.6h0l17.9,14.6l17.9-14.6h0l0,5.6C37.4,31.7,37.5,39.9,31.4,47z M9.1,41.8c2.5,0,4.6-2.1,4.6-4.6c0-2.5-2-4.6-4.6-4.6
			c-2.5,0-4.6,2.1-4.6,4.6C4.5,39.7,6.6,41.8,9.1,41.8z M12.1,35.3c0,0.1-0.1,0.4-0.1,0.4c0,0-0.2,0-0.3,0c-0.1,0-0.1,0-0.1,0.1
			c-0.1,0.2-0.2,0.4-0.3,0.6c0,0.3,0,0.5,0,0.9c0,0.1,0,0.3-0.1,0.4c-0.1,0.1-0.2,0.2-0.3,0.3c0,0,0,0,0,0c0,0,0.3-0.1,0.3-0.1
			c0.1,0,0.3-0.2,0.6,0c0.1,0.1,0.3,0.2,0.5,0.4c0.1,0.1,0.1,0,0.2,0.1c0.1,0.1,0.1,0.2,0.2,0.3c0.1,0.2,0.1,0.4,0.1,0.4
			c-0.1,0-0.4,0-0.5,0c0-0.1,0-0.2-0.1-0.2c0-0.1-0.1-0.2-0.1-0.2c-0.1-0.1-0.2-0.1-0.3-0.2c-0.2-0.1-0.3-0.2-0.4-0.1
			c-0.2,0.1-0.4,0.3-0.7,0.4c-0.2,0.1-0.7,0-0.9-0.1c0.1,0.1,0.4,0.3,0.6,0.4c0,0.1-0.1,0.5-0.3,0.7c0-0.1,0-0.1-0.1-0.1
			c-0.2,0-0.1,0.3-0.3,0.5c0-0.1,0-0.1-0.1-0.1c-0.1,0-0.1,0.3-0.3,0.5c0-0.1-0.1-0.1-0.1-0.1c-0.1,0-0.1,0.1-0.2,0.1
			c-0.2,0.2-0.3,0.3-0.5,0.5c-0.6,0-1.6-0.5-1.9-0.9c0.6-0.6,1.1-1.3,1.4-1.5c0.1-0.4,0.5-1.2,0.6-1.5c0,0,0-0.1-0.1-0.1
			c-0.1,0.1-0.2,0.1-0.2,0c0-0.1,0-0.3,0-0.4c-0.1,0-0.2,0.1-0.2,0c0-0.1,0.1-0.3,0-0.4c0,0,0,0,0,0c-0.1,0-0.2,0.1-0.2,0
			C8,36.3,8,36.2,8,36c0,0,0,0,0,0c-0.1,0.1-0.5,0.1-0.6,0.1c-0.1,0,0.3-0.4,0.6-0.7c-0.3,0.1-0.6,0.2-1.2,0.4
			c-0.3,0.1-1,0.2-1.4,0.1c-0.1,0-0.1-0.1,0-0.1c0.2,0,0.6,0,0.8-0.1c0.1,0,0.2-0.1,0-0.1c-0.2,0-0.6-0.1-0.7-0.2
			c-0.1,0,0-0.1,0-0.1c0.2,0,0.5,0.1,0.7,0.1c0.1,0,0.2,0,0.1-0.1c0,0-0.2-0.1-0.4-0.2c0,0,0-0.1,0-0.1c0.1,0,0.6,0.3,0.9,0.4
			c0.1,0,0.1,0,0.2,0c0.1,0,0.1,0,0.1-0.1c0-0.1-0.3-0.2-0.5-0.3c-0.1,0,0-0.1,0.1-0.1c0.2,0.1,0.6,0.3,0.8,0.3c0.1,0,0.2,0,0.2-0.1
			c0-0.1-0.6-0.4-0.7-0.5c0,0,0-0.1,0-0.1C7.2,34.6,7.7,35,8,35c0,0,0.1,0,0.1-0.1c0-0.1-0.5-0.3-0.6-0.4c-0.1,0,0-0.1,0.1-0.1
			c0.2,0,0.4,0.2,0.6,0.2c0.1,0,0.1,0.1,0.2,0c0.1,0,0.2-0.1,0.1-0.3c0-0.2-0.2-0.3-0.4-0.3c-0.2,0,0-0.1,0.1-0.1
			c0.3,0.1,0.5,0.2,0.5,0.4c0,0,0,0.1,0,0.1c0,0.1,0.1,0.1,0.2,0C9,34.2,9,34,9,33.9c0-0.2-0.4-0.3-0.4-0.4c0,0,0,0,0,0
			c0.1,0,0.5,0.1,0.5,0.4c0,0.2,0,0.2,0,0.4c0,0,0,0.1,0.1,0c0.2-0.2,0.3-0.5,0.3-0.8c-0.1-0.3-0.4-0.4-0.4-0.4c0,0,0,0,0,0
			c0.1,0,0.5,0.2,0.5,0.5c0.1,0.3-0.1,0.9-1,1.4c0.4-0.1,0.5-0.1,0.5,0c0.4-0.1,0.7-0.2,0.8-0.2c0.1,0.2-0.1,0.3-0.1,0.4
			c0,0.1,0.3-0.1,0.2,0.1c-0.1,0.2-0.2,0.2-0.3,0.2c-0.1,0-0.3,0.2-0.5,0.4c0.4,0.3,0.9,0.8,0.9,0.8c0,0.1,0.1,0.3,0.3,0.5
			c0,0,0,0,0,0c0.1-0.2,0.2-0.5,0.2-0.6c0-0.1,0-0.2,0.1-0.3c0-0.1,0.2-0.2,0.3-0.3c0.1-0.1,0.3-0.4,0.3-0.4
			c0.1-0.1,0.2-0.1,0.3-0.2C11.8,35.3,12,35.3,12.1,35.3z M8.7,35.3C8.7,35.3,8.7,35.2,8.7,35.3c0.2-0.1,0.3-0.1,0.3-0.1
			c0,0,0,0.1,0,0.2c-0.1,0.1-0.1,0-0.2,0C8.7,35.3,8.7,35.3,8.7,35.3C8.7,35.3,8.6,35.3,8.7,35.3z M25.2,37.2c0-2.5,2.1-4.6,4.6-4.6
			c2.5,0,4.6,2.1,4.6,4.6c0,2.5-2.1,4.6-4.6,4.6C27.3,41.8,25.2,39.7,25.2,37.2z M31.9,34c0,0,0,0.1,0,0.1c0,0.1-0.1,0.2-0.2,0.2
			c-0.1,0-0.2-0.1-0.2-0.2c0-0.1,0.1-0.2,0.2-0.2l-0.2-0.4l-0.4,0.2c0,0,0.1,0.1,0.1,0.1c0,0.1-0.1,0.2-0.2,0.2
			c-0.1,0-0.2-0.1-0.2-0.2c0-0.1,0.1-0.2,0.1-0.2c-0.1-0.1-0.4-0.3-0.6-0.4c0.2,0.3,0.3,0.8,0.3,1.1c0.3,0,1,0.2,1.2,0.4
			c0.2-0.3,0.5-0.6,0.9-0.8C32.5,34,32.2,34,31.9,34z M30.6,34.9C30.6,34.9,30.6,34.9,30.6,34.9c-0.1,0-0.1,0-0.1,0c0,0,0,0-0.1,0
			c-0.1,0-0.2,0.1-0.2,0.1c0,0,0,0.1,0,0.1c0,0,0.1,0,0.1,0c0,0,0.1,0,0.1,0l0,0c0,0,0.1-0.1,0.1-0.1C30.5,35,30.6,35,30.6,34.9
			C30.6,35,30.7,35,30.6,34.9C30.7,35,30.7,34.9,30.6,34.9z M29.4,35c0,0,0,0.1,0,0.1c0,0,0,0,0,0c0,0.1,0,0.2,0,0.3
			c0,0.1,0.1,0.1,0.2,0.1c0,0,0,0.1,0,0.1c0,0,0,0,0,0c-0.1,0-0.1,0-0.2,0c-0.2,0-0.3-0.1-0.3-0.3c0,0,0-0.1,0-0.1c0,0,0,0,0,0
			c-0.1,0-0.3,0.1-0.3,0.4c0,0.2,0.1,0.3,0.3,0.3c0.1,0,0.2,0,0.4-0.1c0.2-0.1,0.5-0.1,0.7,0c-0.1,0-0.4,0-0.5,0
			c-0.1,0-0.2,0.3-0.1,0.3c0.1,0,0.5,0,0.6,0c0,0.2-0.3,0.4-0.6,0.5c-0.2-0.1-0.6-0.1-0.9,0c-0.3-0.3-0.5-0.9-0.5-1.1
			c0-0.1,0-0.2,0-0.3c0.1-0.2,0.3-0.1,0.3-0.3c0-0.1,0-0.2,0-0.2c0,0,0.1-0.2,0-0.2c0,0-0.1,0.1-0.2,0.1c-0.1,0-0.1,0-0.2,0
			c-0.1,0-0.1,0.2-0.2,0.2c0,0-0.1,0-0.1,0c0-0.1,0.1-0.2,0.1-0.3c0-0.1-0.1-0.2-0.2-0.3c0,0-0.1-0.1-0.2-0.1c-0.1,0-0.1,0-0.1,0
			c0,0,0,0,0,0.1c0,0.1-0.1,0.2-0.1,0.3c0,0.1,0.1,0.3,0.1,0.4c0,0.1,0,0.1-0.1,0c-0.1,0-0.2-0.1-0.3-0.1c-0.1,0-0.2,0.1-0.2,0.1
			c0,0-0.2,0-0.1,0.1c0.1,0,0.1,0.1,0.2,0.1c0,0.1,0,0.1,0.1,0.1c0.1,0.1,0.3,0,0.4,0.1c0.1,0,0.1,0,0.1,0.2c0,0.1,0,0.2-0.1,0.2
			c-0.1,0.1-0.1,0.2-0.1,0.4c0,0,0.1-0.1,0.1-0.1c0.1,0,0.1,0.1,0,0.2c-0.1,0.1-0.1,0.2,0,0.4c0,0,0.1-0.1,0.1-0.1
			c0.1,0,0.1,0.1,0.1,0.2c0,0.1-0.1,0.2,0,0.4c0-0.1,0.1-0.1,0.1-0.1c0.1,0,0.1,0.1,0.1,0.1c0.1,0.2,0.2,0.3,0.6,0.3
			c-0.1,0.2-1.1,0.1-1.5,0c-0.1,0-0.1,0-0.2-0.1c-0.1-0.2,0.1-0.3,0-0.5c0-0.1-0.1-0.1-0.2-0.1c0,0-0.1-0.1-0.2-0.1
			c0,0.1,0,0.1-0.1,0.2c0,0-0.1,0.1-0.1,0.1c0,0.1,0.1,0.2,0.1,0.3c0,0.1,0,0.1-0.1,0.1c-0.1-0.1-0.2-0.2-0.4-0.2
			c-0.1,0-0.1,0.1-0.2,0.1c0,0-0.2,0-0.2,0.1c0.1,0,0.1,0.1,0.1,0.1c0,0.1,0,0.1,0.1,0.2c0.1,0.1,0.3,0.1,0.5,0.1c0,0,0.1,0.1,0,0.1
			C26.2,38,26.1,38,26,38.1c0,0.1,0,0.2,0,0.3c0,0,0,0.2,0,0.2c0-0.1,0.1-0.1,0.2-0.1c0.1,0,0.1,0,0.2,0c0.1-0.1,0.1-0.1,0.2-0.2
			c0,0,0.1-0.1,0.1-0.1c0,0,0.1,0,0.1,0c0.1,0.1,0.1,0.2,0.3,0.3c0,0,0-0.1,0-0.1c0,0,0-0.1,0.1-0.1c0.1,0,0.1,0,0.1,0.1
			c0.1,0.1,0.1,0.1,0.2,0.2c0,0,0-0.1,0-0.1c0-0.1,0-0.1,0.1-0.1c0,0,0.1,0,0.1,0.1c0.1,0.1,0.1,0.2,0.2,0.2c0-0.1,0-0.2,0.1-0.2
			c0.1,0,0.3,0.1,0.5,0.2c0,0.4,0.3,0.9,0.7,1.2c0-0.1,0-0.1,0.1-0.1c0.2,0,0.3,0.4,0.7,0.6c0-0.1,0-0.1,0.1-0.1c0,0,0.1,0,0.1,0
			c0.4,0.2,0.7,0.4,0.9,0.6c0.4-0.1,1-0.5,1.4-0.9c-0.2-0.1-0.9-0.6-1.1-0.8c-0.4-0.4-0.5-0.9-0.5-1.2c0-0.1,0-0.2,0-0.3
			c0.1,0.1,0.3,0.1,0.4,0c-0.2-0.1-0.2-0.4-0.1-0.5c0.1,0.1,0.3,0.1,0.4,0c-0.1-0.1-0.2-0.3-0.1-0.5c0.1,0.1,0.3,0.1,0.4,0
			c-0.2-0.1-0.2-0.3-0.2-0.6c0.1,0.1,0.2,0.1,0.3,0.1c-0.1-0.1-0.1-0.3-0.1-0.5c0-0.2-0.1-0.4-0.1-0.5c-0.2-0.2-0.8-0.4-1.2-0.4
			c-0.1,0-0.1,0-0.1,0c-0.1,0-0.2,0.1-0.2,0.1c-0.1,0.1-0.2,0.1-0.3,0.1C29.8,34.9,29.5,35,29.4,35z M30,38.1L30,38.1
			c-0.1,0.3-0.2,0.7-0.3,0.8l0.2-0.1l0.1,0.1l0.1-0.1l0.2,0.1C30.2,38.8,30,38.4,30,38.1z M33.1,39.4c0-0.1,0.1-0.1,0.1-0.1
			c-0.2-0.3-0.3-0.5-0.3-0.9c0-0.4,0.2-0.5,0.4-0.5c0.1,0,0.2,0.1,0.2,0.3c0.1-0.1,0.2-0.2,0.2-0.3c0-0.1,0-0.2-0.2-0.3
			c0.3-0.3,0.3-0.8,0-1c0,0.4-0.2,0.6-0.5,0.9c-0.3,0.3-0.4,0.7-0.3,1.1c-0.2-0.4-0.3-0.8-0.3-1.1c0-0.4,0.2-0.8,0.5-0.8
			c0.1,0,0.2,0.1,0.2,0.1c0.1-0.2,0-0.5-0.2-0.5c0.2-0.6-0.1-1.1-0.5-1.2c0.1,0.2,0.1,0.3,0.1,0.5c0,0.5-0.5,1-0.6,1.8
			c0,0.9,0.4,1.6,0.9,2.2C33,39.5,33,39.5,33.1,39.4z M31,39.3L31,39.3c-0.1,0.3-0.2,0.7-0.3,0.8l0.2-0.1l0.1,0.1l0.1-0.1l0.2,0.1
			C31.2,40,31.1,39.6,31,39.3z M30.3,35.8c0-0.1,0-0.1,0-0.2c0,0,0-0.1,0-0.1c0,0-0.1,0-0.2,0c-0.1,0-0.2,0-0.2,0c0,0,0,0.1,0,0.1
			C30,35.6,30.1,35.7,30.3,35.8z"/>
	</g>
	<path class="st2" d="M97,16.9c-0.3,0.3-0.6,0.4-1,0.4c-0.9,0-1.5-0.4-2.9-0.4c-2.4,0-4.3,1.3-4.3,3.7c0,4.9,7.6,3.9,7.6,7.4
		c0,1.6-1.2,2.4-2.6,2.4c-2.7,0-4.3-1.8-4.9-4.4h-0.7l0.9,5c0.3-0.3,0.7-0.5,1.1-0.5c0.8,0,1.8,0.6,3.5,0.6c2.8,0,5-1.6,5-4.3
		c0-5.4-7.7-3.9-7.7-7.4c0-1.1,0.8-1.9,2.2-1.9c2.3,0,3.5,1.6,4,3.5h0.7L97,16.9z M135.5,30.2v0.7h7.4v-0.7h-2.2V23
		c0-2.6,1.3-5.1,3.8-5.1c1.4,0,2.3,0.8,2.3,2.9v9.4h-2.2v0.7h7.2v-0.7h-2.2v-9.3c0-2.8-1.4-4-4.1-4c-2.3,0-3.9,1.1-4.8,3h-0.1v-3.1
		c-0.4,0.3-0.9,0.7-2.1,0.7c-0.8,0-2.9,0-2.9,0v0.7h2.2v12H135.5z M108.4,28.5c-0.4,0.8-0.9,1.6-2,1.6c-1.1,0-1.5-0.7-1.5-2.3v-9.6
		h3.4v-0.7h-3.4V13h-0.6c-0.4,3-1.9,4.5-4.6,4.7v0.5l0,0h0h2.3v9.5c0,1.8,0.3,3.5,3.2,3.5c1.8,0,2.9-0.8,3.5-1.9l0.2-0.4L108.4,28.5
		z M134.7,18.9c0-1.1-0.8-1.9-2.3-1.9c-2.3,0-3.4,2-4,3.6h0v-3.7c-0.4,0.4-0.9,0.7-2.1,0.7c-0.9,0-3.1,0-3.1,0v0.7h2.4v12h-2.4v0.7
		h7.5v-0.7h-2.3v-5.9c0-3.1,1.5-6.6,3.5-6.6c0.1,0,0.2,0,0.3,0.1c-0.3,0.3-0.6,0.7-0.6,1.2c0,0.9,0.7,1.5,1.5,1.5
		C134.1,20.5,134.7,19.7,134.7,18.9z M85.6,27.1c-0.8,1.8-2.1,3.3-4.5,3.3c-3.6,0-4.1-2.7-4.1-6.9v-0.2h9.2c0-3.7-2.1-6.3-5.9-6.3
		c-4.2,0-6.5,3.2-6.5,7.1c0,4.1,2.1,7.1,6.4,7.1c2.7,0,4.8-1,6-4L85.6,27.1z M77,21.8c0.2-2.1,0.9-4.1,3.1-4.1
		c2.3,0,2.8,1.8,2.9,3.7c0,0.2,0,0.8,0,1h-6C77,22.2,77,22,77,21.8z M121.5,27.1c-0.8,1.8-2.1,3.3-4.5,3.3c-3.6,0-4.1-2.7-4.1-6.9
		v-0.2h9.2c0-3.7-2.1-6.3-5.9-6.3c-4.2,0-6.5,3.2-6.5,7.1c0,4.1,2.1,7.1,6.4,7.1c2.7,0,4.8-1,6-4L121.5,27.1z M112.9,21.8
		c0.2-2.1,0.9-4.1,3.1-4.1c2.3,0,2.8,1.8,2.9,3.7c0,0.2,0,0.8,0,1h-6C112.9,22.2,112.9,22,112.9,21.8z M61.8,16.8
		c-1.2,3.5-5,14.4-5,14.4h-0.6L50,14.3l-1-2.7H47v-0.7h8v0.7h-2.5l0.8,2.3l4.3,12h0.1l3.6-10.4l-1.4-3.8h-2.4v-0.7h8.7v0.7h-2.8
		l0.8,2.2l4.4,12h0.1l3.9-12l0.7-2.3h-2.5v-0.7h5.6v0.7h-2l-0.9,2.5l-5.6,17.1h-0.6L61.8,16.8z"/>
</g>
</svg>
