<svg id="ai16378599555_schulich_horizontal_Image" data-name="ai16378599555_schulich horizontal Image" xmlns="http://www.w3.org/2000/svg" viewBox="0 0 231.30501 72.17942"><defs><style>.cls-1{fill:#4f2683;}</style></defs><path class="cls-1" d="M56.977,13.49047c-5.7993,0-10.03374,3.16882-10.03374,7.60779A6.63622,6.63622,0,0,0,50.86374,27.186c2.19651,1.26715,2.97718,1.52042,11.60143,3.80375a76.97647,76.97647,0,0,1,10.69242,3.34669,35.91117,35.91117,0,0,0-7.13231-17.68137C63.71529,14.48165,60.79,13.49047,56.977,13.49047Z" transform="translate(-1.2275 -2.43029)"/><path class="cls-1" d="M65.91537,45.69853c-2.03823-1.26753-4.39054-2.02935-9.87656-3.42492C46.0026,39.73848,42.3966,38.34428,38.47733,35.55385A15.039,15.039,0,0,1,31.7366,23.2542c0-9.06026,7.40545-16.23488,18.30378-18.51071a36.09163,36.09163,0,1,0,5.75909,64.77469c-7.9556-.19207-14.73369-2.31035-19.51515-5.81285-4.07864-3.171-5.64524-5.70759-7.21337-12.3014l13.6401-2.15528c1.72495,7.35424,6.58456,10.77924,14.89444,10.77924,7.36808,0,12.072-3.29767,12.072-8.24483Q69.67746,47.98144,65.91537,45.69853Z" transform="translate(-1.2275 -2.43029)"/><path class="cls-1" d="M91.928,47.35727c.59108,0,3.54481,1.14028,5.86762,1.14028,4.9382,0,8.61041-3.08215,8.61041-7.21979,0-7.76607-13.55014-9.37011-13.55014-15.36432,0-2.36367,1.94222-3.96764,4.72741-3.96764a7.45665,7.45665,0,0,1,6.79688,4.98126h.71738l-.71738-5.3611h-.67608a.8079.8079,0,0,1-.75934.42217c-1.477,0-2.19548-1.05528-5.74059-1.05528-4.306,0-7.514,2.61692-7.514,6.1208,0,7.387,13.55014,9.24425,13.55014,15.32164,0,3.33606-2.99751,4.982-5.8253,4.982a7.32009,7.32009,0,0,1-7.13369-5.95219h-.802l.887,6.41668h.71695A1.01474,1.01474,0,0,1,91.928,47.35727Z" transform="translate(-1.2275 -2.43029)"/><path class="cls-1" d="M124.81035,43.9373l-.633-.37912c-1.51933,2.11048-3.12337,3.03873-5.14914,3.03873-3.42034,0-5.95263-3.12337-5.95263-7.345,0-4.05162,2.53229-7.51318,5.44472-7.51318,2.36513,0,2.87157,2.57527,4.9393,2.57527a1.23537,1.23537,0,0,0,1.22419-1.26681c0-1.35012-2.06846-2.40569-4.72807-2.40569a9.62023,9.62023,0,0,0-9.70793,9.54011c0,3.33388,2.02577,8.14665,7.091,8.14665C120.71539,48.32827,123.03711,46.76619,124.81035,43.9373Z" transform="translate(-1.2275 -2.43029)"/><path class="cls-1" d="M134.98285,47.01944c-2.19512,0-2.74287-.54912-2.74287-2.53367V34.35632c2.0678-1.30912,3.58713-1.98454,4.9806-1.98454,1.392,0,3.84039.59108,3.84039,5.10755,0,6.29081-.1679,8.10469-.9276,8.865a3.29739,3.29739,0,0,1-2.36367.67507v.80232h9.11686v-.80232c-2.48954,0-3.12337-.46376-3.208-1.604.12666-2.279.212-4.64408.212-8.48447,0-4.26358-1.43608-6.28942-4.68677-6.28942-2.15244,0-4.17828,1.013-6.96376,2.65961V19.45546h-.67644L126.541,21.1861v.71731l1.81455.25362c.887.1266,1.05557.46413,1.05557,1.39274V43.77014c0,2.32033-.54913,3.12337-2.87012,3.2493v.80232h8.44187Z" transform="translate(-1.2275 -2.43029)"/><path class="cls-1" d="M168.45705,46.59691v-.759l-.887.16862c-1.51933.29587-1.94048.08391-1.94048-1.0976V30.68346l-6.50131,1.01362v.59042l2.11041.37985c1.35078.25319,1.56135.59145,1.56135,2.23707V43.98a8.76186,8.76186,0,0,1-5.02255,2.32245,3.60259,3.60259,0,0,1-3.79981-3.79982V30.68346l-5.44436,1.18187v.63377l1.47665.42144c.887.25325,1.1402.71775,1.1402,1.73063v9.37077a4.2931,4.2931,0,0,0,4.47416,4.30633c1.68868,0,4.0104-1.09832,7.17571-3.37663v3.37663Z" transform="translate(-1.2275 -2.43029)"/><path class="cls-1" d="M180.06489,47.01944h-.717c-1.64665,0-2.449-.80238-2.449-2.53367V19.45546h-.6323l-5.40313,1.73064v.71731l1.89917.21131c1.18151.12659,1.30883.50644,1.30883,1.68831V44.19194c0,2.02512-.80239,2.8275-3.50395,2.8275v.80232h9.49743Z" transform="translate(-1.2275 -2.43029)"/><path class="cls-1" d="M187.4938,24.14122a1.75345,1.75345,0,0,0,1.858-1.60433,1.753,1.753,0,0,0-1.858-1.604,1.61638,1.61638,0,1,0,0,3.20837Z" transform="translate(-1.2275 -2.43029)"/><path class="cls-1" d="M192.26389,47.01944c-2.23781,0-3.03946-.929-3.03946-2.40635V30.43028H188.592l-5.48842,1.89991v.67534l1.98455.37986c1.09752.21058,1.3081.42217,1.3081,2.06817V43.9373c0,2.23781-.929,3.08214-3.50395,3.08214v.80232h9.37157Z" transform="translate(-1.2275 -2.43029)"/><path class="cls-1" d="M209.61341,43.9373l-.63377-.37912c-1.5194,2.11048-3.12336,3.03873-5.14848,3.03873-3.4207,0-5.95291-3.12337-5.95291-7.345,0-4.05162,2.53221-7.51318,5.445-7.51318,2.36512,0,2.87157,2.57527,4.93937,2.57527a1.23477,1.23477,0,0,0,1.22346-1.26681c0-1.35012-2.0678-2.40569-4.72741-2.40569a9.62,9.62,0,0,0-9.70793,9.54011c0,3.33388,2.02584,8.14665,7.09107,8.14665C205.51838,48.32827,207.84009,46.76619,209.61341,43.9373Z" transform="translate(-1.2275 -2.43029)"/><path class="cls-1" d="M229.32449,45.4154c.12732-2.279.212-4.64408.212-8.48447,0-4.26358-1.43614-6.28942-4.68611-6.28942-2.1531,0-4.17894,1.013-6.96442,2.65961V19.45546h-.67572l-5.02328,1.73064v.71731l1.81455.25362c.887.1266,1.05557.46413,1.05557,1.39274V43.77014c0,2.32033-.54913,3.12337-2.87012,3.2493v.80232h8.44179v-.80232c-2.19505,0-2.74279-.54912-2.74279-2.53367V34.35632c2.06853-1.30912,3.58786-1.98454,4.9806-1.98454,1.392,0,3.841.59108,3.841,5.10755,0,6.29081-.16855,8.10469-.92825,8.865a3.29634,3.29634,0,0,1-2.36367.67507v.80232h9.11686v-.80232C230.0429,47.01944,229.40913,46.55568,229.32449,45.4154Z" transform="translate(-1.2275 -2.43029)"/><path class="cls-1" d="M97.74539,57.01975s-2.1179,5.74022-2.44087,6.61588c-.32821-.8742-2.48852-6.61588-2.48852-6.61588H90.85032v9.13819H92.1837V59.45167c.58255,1.55422,2.51342,6.70627,2.51342,6.70627h1.02636s1.91484-5.13923,2.4974-6.70125v6.70125H99.6866V57.01975H97.74539Z" transform="translate(-1.2275 -2.43029)"/><path class="cls-1" d="M103.32494,62.04652h3.52274V60.752h-3.52274V58.367h4.43926V57.01975h-5.92982v9.13819h6.04716V64.81073h-4.5566Z" transform="translate(-1.2275 -2.43029)"/><path class="cls-1" d="M112.5104,57.01975h-3.12191v9.13819h3.4751c2.1378,0,3.75073-1.97318,3.75073-4.588a4.80206,4.80206,0,0,0-1.37213-3.53731A3.73346,3.73346,0,0,0,112.5104,57.01975Zm1.71141,7.14724a2.43026,2.43026,0,0,1-1.77754.65583h-1.57768V58.34205h1.57768a2.28726,2.28726,0,0,1,1.80245.70566,3.72587,3.72587,0,0,1,.8632,2.50876A3.88625,3.88625,0,0,1,114.22181,64.167Z" transform="translate(-1.2275 -2.43029)"/><polygon class="cls-1" points="116.998 54.589 116.998 63.728 118.503 63.728 118.503 54.589 118.301 54.589 116.998 54.589"/><path class="cls-1" d="M127.12354,62.96982a3.14653,3.14653,0,0,1-.5591,1.30672,1.82583,1.82583,0,0,1-1.4596.72976c-1.31735,0-2.16737-1.328-2.16737-3.38369,0-2.18587.80952-3.43774,2.22-3.43774.97166,0,1.53426.56122,1.94114,1.93545l.05193.17714,1.407-.28669-.04983-.20482c-.47869-1.96036-1.60615-2.9562-3.35026-2.9562-2.31742,0-3.81548,1.82663-3.81548,4.65406,0,2.88511,1.50658,4.82341,3.74934,4.82341a3.11833,3.11833,0,0,0,2.49878-1.09257,4.11675,4.11675,0,0,0,.91616-1.93618l.05623-.20417-1.38916-.31226Z" transform="translate(-1.2275 -2.43029)"/><polygon class="cls-1" points="128.611 54.589 128.611 63.728 130.116 63.728 130.116 54.589 129.914 54.589 128.611 54.589"/><path class="cls-1" d="M139.05574,57.01975v6.08169s.005.28946.00859.47658c-.64592-1.09257-3.88162-6.55827-3.88162-6.55827H133.4912v9.13819h1.29455V59.47447s-.005-.19346-.00852-.35924c.65445,1.1075,4.16968,7.04271,4.16968,7.04271h1.37715V57.01975h-1.26832Z" transform="translate(-1.2275 -2.43029)"/><path class="cls-1" d="M143.9624,62.04652h3.5231V60.752h-3.5231V58.367h4.43926V57.01975H142.4722v9.13819h6.0468V64.81073h-4.5566Z" transform="translate(-1.2275 -2.43029)"/><path class="cls-1" d="M161.50822,64.80789l-.48648.06111c.02491-.00495-.5015.03278-.5015.03278a.90584.90584,0,0,1-.71483-.29733c.18064-.27533.89693-1.36287.89693-1.36287l.72059-2.04573-.23338-.02-1.116-.23687-.43674,1.604s-.38553.66225-.606,1.0399c-.27176-.41043-1.37569-2.0777-1.55422-2.34727.2703-.17074.99016-.62881.99016-.62881a2.252,2.252,0,0,0,.776-1.683,2.20321,2.20321,0,0,0-4.398-.01348,3.61025,3.61025,0,0,0,.75686,1.86364,3.0272,3.0272,0,0,0-2.18376,2.75918,2.91057,2.91057,0,0,0,3.18667,2.794,3.41513,3.41513,0,0,0,2.28544-.82089c.59749.57761.84718.74266,1.47316.74266l1.15724-.111-.01209-.1821Zm-4.45849-6.74182A.90468.90468,0,0,1,158,58.963c0,.41685-.14794.7149-.96023,1.18719-.005.00429-.116.06613-.22055.1252-.054-.08747-.10736-.175-.10736-.175a2.6027,2.6027,0,0,1-.52-1.242A.7831.7831,0,0,1,157.04973,58.06607Zm-.3663,7.03128a1.55526,1.55526,0,0,1-1.76116-1.61679,1.51038,1.51038,0,0,1,.46872-1.18507s.59108-.34.86422-.49858c.17853.26316,1.68657,2.47744,1.87718,2.75771A1.92221,1.92221,0,0,1,156.68343,65.09735Z" transform="translate(-1.2275 -2.43029)"/><path class="cls-1" d="M169.82771,57.01975h-3.1219v9.13819h3.47473c2.13817,0,3.75146-1.97318,3.75146-4.588a4.80347,4.80347,0,0,0-1.37213-3.53731A3.73477,3.73477,0,0,0,169.82771,57.01975Zm1.71141,7.14724a2.43142,2.43142,0,0,1-1.77754.65583H168.1839V58.34205h1.57768a2.28827,2.28827,0,0,1,1.80245.70566,3.726,3.726,0,0,1,.86357,2.50876A3.88647,3.88647,0,0,1,171.53912,64.167Z" transform="translate(-1.2275 -2.43029)"/><path class="cls-1" d="M177.034,62.04652h3.52238V60.752H177.034V58.367h4.43927V57.01975H175.5431v9.13819h6.04753V64.81073H177.034Z" transform="translate(-1.2275 -2.43029)"/><path class="cls-1" d="M188.66175,57.01975v6.08169s.00641.2923.01.478c-.64513-1.09038-3.883-6.55965-3.883-6.55965h-1.69152v9.13819h1.29455V59.47447s-.005-.19346-.00852-.35924c.65511,1.1075,4.16969,7.04271,4.16969,7.04271h1.37715V57.01975h-1.26833Z" transform="translate(-1.2275 -2.43029)"/><path class="cls-1" d="M191.12288,57.01975v1.36069h2.48676v7.7775h1.51722v-7.7775H197.615V57.01975h-6.49213Z" transform="translate(-1.2275 -2.43029)"/><polygon class="cls-1" points="197.58 54.589 197.58 63.728 199.085 63.728 199.085 54.589 198.882 54.589 197.58 54.589"/><path class="cls-1" d="M206.298,60.88854l-1.62392-.394c-1.04916-.25821-1.25974-.621-1.25974-1.12462,0-.71767.68577-1.23766,1.63034-1.23766a1.91275,1.91275,0,0,1,1.97959,1.40839l.05194.19565,1.38348-.387-.06759-.202a3.21835,3.21835,0,0,0-3.30758-2.29753c-1.88352,0-3.14828,1.03918-3.14828,2.58487a2.38856,2.38856,0,0,0,.78818,1.84083,3.13648,3.13648,0,0,0,1.51154.69852l1.742.44534c.53841.1408,1.18216.463,1.18216,1.19141,0,.86568-.707,1.38211-1.892,1.38211a2.24631,2.24631,0,0,1-2.38858-1.64389l-.05906-.17211-1.38561.31509.08318.21837a3.78738,3.78738,0,0,0,1.05776,1.69793,3.66467,3.66467,0,0,0,2.70441.919c2.04711,0,3.4228-1.13882,3.4228-2.83385C208.70293,62.15607,207.89348,61.28049,206.298,60.88854Z" transform="translate(-1.2275 -2.43029)"/><path class="cls-1" d="M209.18731,57.01975v1.36069h2.48676v7.7775h1.51722v-7.7775h2.48815V57.01975h-6.49213Z" transform="translate(-1.2275 -2.43029)"/><path class="cls-1" d="M222.81531,61.415a2.69826,2.69826,0,0,0,.65365-1.74346,2.66217,2.66217,0,0,0-2.95118-2.65174h-3.64547v9.13819h1.42545V62.37306H220.463c.09745.22973,1.61037,3.78488,1.61037,3.78488h1.5905s-1.61533-3.80979-1.75766-4.14412A2.04752,2.04752,0,0,0,222.81531,61.415Zm-2.442-.33652h-2.07558V58.367h2.22a1.27071,1.27071,0,0,1,1.44678,1.27678C221.96456,60.55706,221.38484,61.07843,220.37334,61.07843Z" transform="translate(-1.2275 -2.43029)"/><path class="cls-1" d="M229.82671,57.01975s-1.91419,3.30044-2.21508,3.81832c-.298-.51788-2.19935-3.81832-2.19935-3.81832H223.661l3.09634,5.35688-.02775,3.78131h1.49092V62.277c.02346.01282,2.89146-4.95284,2.89146-4.95284l.17569-.30439h-1.461Z" transform="translate(-1.2275 -2.43029)"/></svg>